<svg preserveAspectRatio="none" xmlns="http://www.w3.org/2000/svg"
  xmlns:xlink="http://www.w3.org/1999/xlink" xml:space="preserve" style="shape-rendering:geometricPrecision;text-rendering:geometricPrecision;image-rendering:optimizeQuality;" viewBox="-0.005 -0.32989 0.09 0.338923125" x="0px" y="0px" fill-rule="evenodd" clip-rule="evenodd" width="90" height="160">
  <defs>
    <style type="text/css">
   
    .fil0 {fill:black}
   
    </style>
  </defs>
  <g>
    <path class="fil0" transform='rotate(-90)' d="M-0 0.0593096l0.0108931 -2.75675e-005 0 -0.00168556 -0.00288672 0 0 -0.000673436 0.00288672 0 0 -0.000511969 0.00102394 0 0 0.000511969 0.000964864 0 0 0.000673436 -0.000964864 0 0 0.00168556 0.00656108 -1.57529e-005 0 -0.00497003 0.0106568 0 0 0.00494247 0.0724633 -0.00017722 0 -0.00613181 0.0172888 0 0 0.00608849 0.017021 -4.33204e-005 0.00345382 -0.00945567 0.0444743 -0.00211876 0.000318996 -0.0206442 0.00749443 0.000185096 0 0.0114445 0.00467467 -5.11969e-005 0 -0.00589552 0.00702579 0 0 0.00582069 0.00594671 -6.69498e-005 -5.11969e-005 -0.00849474 0.00591521 -0.00202425 4.72587e-005 -0.0192146 0.0191161 -0.0084593 0.000657683 0.0327621 0.0287923 0.00899883 7.48262e-005 0.00434386 0.0282252 0.00363104 0.00267799 0 0 0.00561984 0.00359166 0 0 0.00439505 0.0132324 -3.93822e-006 0 -0.00758501c0.00129567,0.00109089 0.00226448,0.00125629 0.00365073,0.00204787 -0.00116571,0.00105544 -0.00232749,0.00194548 -0.00342625,0.00170525l0 0.00383189 0.0077583 0c-0.00059861,0.00276463 0.00330811,0.0185766 -0.00986918,0.0192737 -0.0950332,1.57529e-005 -0.190263,0.000102394 -0.285297,0.000118147 -0.0153551,-0.0172652 -0.016316,-0.0128425 -0.0243933,-0.0198289zm0.196935 -0.0209828l0.00580494 -6.30115e-005 0 -0.00432417 -0.00580494 0 0 0.00438718zm-0.093836 0.0207308l0.0142879 -3.5444e-005 0 -0.00459197 -0.0142879 0 0 0.00462741zm0.168087 -0.00800246l0.00307969 0 0 0.00307969 -0.00307969 0 0 -0.00307969zm-0.00798277 0l0.00307969 0 0 0.00307969 -0.00307969 0 0 -0.00307969z"/>
  </g>
</svg>