<svg preserveAspectRatio="none" xmlns="http://www.w3.org/2000/svg"
  xmlns:xlink="http://www.w3.org/1999/xlink" xml:space="preserve" style="shape-rendering:geometricPrecision;text-rendering:geometricPrecision;image-rendering:optimizeQuality;" viewBox="-0.006 -0.009 0.314606 0.10549837499999999" x="0px" y="0px" fill-rule="evenodd" clip-rule="evenodd">
  <defs>
    <style type="text/css">
   
    .fil0 {fill:#FFA435}
   
    </style>
  </defs>
  <g>
    <path class="fil0" d="M0.128498 0.0465163l-4.72447e-005 -0.00463392 0.0693277 0 -4.72447e-005 0.00463392 -0.0692332 0zm-8.26782e-005 -0.00848042l-3.54335e-005 -0.00316146 0.0694694 0 -3.54335e-005 0.00316146 -0.0693985 0zm-7.87412e-005 -0.00700796l-2.75594e-005 -0.00311028 0.0696111 0 -2.75594e-005 0.00311028 -0.069556 0zm-7.08671e-005 -0.00695678l-1.96853e-005 -0.00221656 -0.00585047 0.000224412 0 0.0136695 -0.00364572 -5.90559e-005 0 -0.0070434 -0.00548826 0 0 0.00695285 -0.00464179 -7.87412e-005 3.93706e-005 -0.0101497 -0.00461423 -0.00241735 -0.0155789 -2.75594e-005 5.11818e-005 0.00832688 -0.0224255 0.00853161 -5.90559e-005 0.00518904 -0.0139411 0.00454337 -0.0101852 -0.000208664 0 0.00671662 -0.00279925 0 0 0.0052481 -0.00991745 -3.93706e-006 0 -0.00433076 0.00532684 0.000570874 0.000216538 -0.00306697 -0.00554338 -0.000594496 0 -0.00105907 -0.00379926 0 0 0.000657489 -0.0205593 -0.00180711 -3.14965e-005 0.00170081 0.0205908 0.00319295 0 0.00473628 -0.010386 0 -0.00100789 -0.00228743 -0.0139962 7.87412e-006c0.0279019,0.0223743 0.0154687,0.0261303 0.0403627,0.0253114 0.0885956,3.54335e-005 0.158463,3.54335e-005 0.247011,0 0.0102915,-0.000838594 0.0158427,-0.0197286 0.0163112,-0.0230318l-0.0060552 0 0 -0.0045788c0.000858279,0.000287405 0.00606701,-0.00139372 0.00697647,-0.00265358 -0.00108663,-0.000944894 -0.00613787,-0.000527566 -0.00715364,-0.00183073l0 0.00906311 -0.0103308 3.93706e-006 0 -0.0052481 -0.00279925 0 0 -0.00671662 -0.00209058 0 -0.0220397 -0.0043347 -5.90559e-005 -0.00518904 -0.0224767 -0.010756 -0.000377958 -0.0286539 -0.0150553 -0.000374021 -3.93706e-005 0.0229531 -0.00461423 0.00242129 3.93706e-005 0.0101458 -0.00464573 7.87412e-005 0 -0.00695285 -0.00548432 0 0 0.0070434 -0.00364965 5.90559e-005 0 -0.0136695 -0.00584653 -0.000224412 -2.36224e-005 0.00221656 -0.0696938 0zm0.0617803 0.0264688l0.0023583 0 0 0.00361028 -0.0023583 0 0 -0.00361028zm-0.0272287 0l0.0023583 0 0 0.00361028 -0.0023583 0 0 -0.00361028zm-0.0272248 0l0.0023583 0 0 0.00361028 -0.0023583 0 0 -0.00361028zm0.0723631 -0.0148624l0.00453155 -7.48041e-005 0 -0.00516542 -0.00453155 0 0 0.00524023zm0.0579653 0.0152049l0.00240554 0 0 0.00368115 -0.00240554 0 0 -0.00368115zm-0.00623236 0l0.00240948 0 0 0.00368115 -0.00240948 0 0 -0.00368115zm-0.141419 -0.0152049l-0.00452762 -7.48041e-005 0 -0.00516542 0.00452762 0 0 0.00524023zm-0.0579653 0.0152049l-0.00240161 0 0 0.00368115 0.00240161 0 0 -0.00368115zm0.0062363 0l-0.00240554 0 0 0.00368115 0.00240554 0 0 -0.00368115z"/>
  </g>
</svg>