<svg xmlns:dc="http://purl.org/dc/elements/1.1/" xmlns:cc="http://creativecommons.org/ns#" xmlns:rdf="http://www.w3.org/1999/02/22-rdf-syntax-ns#" xmlns:svg="http://www.w3.org/2000/svg" xmlns="http://www.w3.org/2000/svg" xmlns:sodipodi="http://sodipodi.sourceforge.net/DTD/sodipodi-0.dtd" xmlns:inkscape="http://www.inkscape.org/namespaces/inkscape" version="1.1" x="0px" y="0px" viewBox="0 0 100 125"><g transform="translate(0,-952.36218)"><path d="m 30.20101,982.56318 c 1.95268,-1.95267 5.11847,-1.95261 7.07107,0 l 12.72791,12.72794 12.72793,-12.72794 c 1.95261,-1.95261 5.11839,-1.95268 7.07107,0 1.95267,1.95268 1.95261,5.11847 0,7.07107 l -12.72793,12.72795 12.72793,12.7279 c 1.95261,1.9526 1.95268,5.1184 0,7.0711 -1.95268,1.9526 -5.11847,1.9526 -7.07107,-10e-5 L 50,1009.4332 l -12.72793,12.728 c -1.9526,1.9526 -5.11838,1.9526 -7.07106,-10e-5 -1.95267,-1.9526 -1.95261,-5.1184 -10e-6,-7.071 l 12.72794,-12.7279 -12.72793,-12.72795 c -1.95261,-1.95261 -1.95268,-5.11839 0,-7.07107 z" style="text-indent:0;text-transform:none;direction:ltr;block-progression:tb;baseline-shift:baseline;color:#000000;enable-background:accumulate;" fill="#000000" fill-opacity="1" stroke="none" marker="none" visibility="visible" display="inline" overflow="visible"/></g><text x="0" y="115" fill="#000000" font-size="5px" font-weight="bold" font-family="'Helvetica Neue', Helvetica, Arial-Unicode, Arial, Sans-serif">Created by Barracuda</text><text x="0" y="120" fill="#000000" font-size="5px" font-weight="bold" font-family="'Helvetica Neue', Helvetica, Arial-Unicode, Arial, Sans-serif">from the Noun Project</text></svg>