<svg xmlns="http://www.w3.org/2000/svg" xmlns:xlink="http://www.w3.org/1999/xlink" version="1.1" x="0px" y="0px" viewBox="0 0 24 30" style="enable-background:new 0 0 24 24;" xml:space="preserve"><g><rect x="15.778" y="14.109" width="1.314" height="1.253"/><rect x="11.51" y="12.115" width="1.137" height="1.14"/><path d="M6.902,11.45h-0.38v1.804H7.66v-1.14H7.267c-0.142,0-0.275-0.071-0.354-0.189c-0.079-0.118-0.095-0.267-0.041-0.399   L6.902,11.45z"/><rect x="8.513" y="12.115" width="2.144" height="1.14"/><rect x="7.107" y="14.109" width="1.314" height="1.253"/><rect x="11.51" y="6.628" width="1.137" height="0.65"/><rect x="13.501" y="12.115" width="2.133" height="1.14"/><polygon points="19.338,8.796 16.19,8.796 16.911,10.597 20.534,10.597  "/><rect x="11.443" y="14.109" width="1.314" height="1.253"/><rect x="17.946" y="14.109" width="0.917" height="1.253"/><polygon points="15.007,8.132 9.152,8.132 7.931,11.187 7.929,11.192 7.901,11.261 16.256,11.261  "/><rect x="13.61" y="14.109" width="1.314" height="1.253"/><rect x="9.275" y="14.109" width="1.314" height="1.253"/><polygon points="7.967,8.796 4.819,8.796 3.616,10.597 7.244,10.597  "/><rect x="5.291" y="14.109" width="0.963" height="1.253"/><rect x="6.522" y="6.296" width="1.138" height="1.646"/><path d="M17.626,11.45h-0.38l0.032,0.082c0.052,0.131,0.034,0.279-0.045,0.396c-0.08,0.117-0.212,0.187-0.353,0.187h-0.393v1.14   h1.138V11.45z"/><path d="M22.662,22.677l-0.294-0.008c-0.436-0.011-0.886-0.022-1.278-0.133c-0.15-0.043-0.292-0.109-0.435-0.175   c-0.28-0.128-0.597-0.273-0.971-0.289c-0.372-0.017-0.692,0.152-0.964,0.301c-0.139,0.076-0.271,0.149-0.387,0.179   c-0.797,0.216-1.654,0.192-2.413-0.063c-0.103-0.034-0.2-0.077-0.296-0.119c-0.311-0.134-0.664-0.288-1.112-0.216   c-0.329,0.052-0.622,0.17-0.906,0.285c-0.256,0.103-0.498,0.2-0.743,0.24c-0.665,0.104-1.297,0.048-1.829-0.167   c-0.1-0.041-0.193-0.093-0.286-0.143c-0.26-0.142-0.585-0.31-1.002-0.288c-0.324,0.024-0.61,0.148-0.863,0.257   c-0.156,0.068-0.312,0.138-0.474,0.172c-0.966,0.205-2.046,0.09-3.063-0.332c-0.137-0.056-0.322-0.131-0.548-0.113   c-0.374,0.034-0.683,0.197-0.955,0.341c-0.193,0.102-0.374,0.198-0.552,0.234c-0.508,0.101-1.062,0.094-1.649-0.03   c-0.229-0.047-0.457,0.1-0.506,0.329c-0.048,0.231,0.099,0.457,0.33,0.506c0.7,0.146,1.371,0.158,1.997,0.03   c0.297-0.06,0.553-0.196,0.779-0.315c0.23-0.122,0.429-0.227,0.629-0.246c0.027,0.001,0.101,0.032,0.169,0.059   c1.153,0.478,2.412,0.611,3.545,0.371c0.217-0.046,0.427-0.133,0.637-0.224c0.209-0.091,0.407-0.176,0.588-0.19   c0.165-0.001,0.306,0.064,0.529,0.185c0.121,0.066,0.244,0.132,0.376,0.185c0.46,0.185,0.973,0.279,1.511,0.279   c0.253,0,0.511-0.02,0.772-0.063c0.34-0.054,0.638-0.174,0.927-0.29c0.251-0.101,0.488-0.196,0.721-0.232   c0.197-0.031,0.372,0.039,0.64,0.155c0.118,0.051,0.239,0.102,0.364,0.144c0.918,0.308,1.95,0.336,2.907,0.078   c0.214-0.057,0.406-0.163,0.575-0.254c0.192-0.105,0.372-0.201,0.518-0.198c0.207,0.009,0.413,0.103,0.652,0.213   c0.182,0.083,0.365,0.166,0.557,0.22c0.496,0.141,1,0.153,1.489,0.166l0.285,0.007c0.005,0.001,0.01,0.001,0.016,0.001   c0.228,0,0.418-0.181,0.426-0.412C23.082,22.883,22.898,22.685,22.662,22.677z"/><polygon points="9.123,4.49 8.695,3.641 5.488,3.641 4.588,5.443 8.765,5.443  "/><path d="M10.657,7.278v-0.65h-1.72c-0.14,0-0.271-0.069-0.351-0.183C8.555,6.4,8.542,6.348,8.53,6.296H8.513V7.49   C8.59,7.366,8.715,7.278,8.864,7.278H10.657z"/><rect x="16.488" y="6.296" width="1.138" height="1.646"/><polygon points="19.561,5.443 18.66,3.641 15.456,3.641 15.031,4.505 15.382,5.443  "/><path d="M13.671,3.309h-0.982V2.087l1.516-0.567l-2.583-1.103v0.669v1.4v0.823h-1.144l-0.48,1.282   c-0.003,0.009-0.007,0.017-0.01,0.026L9.554,5.774h5.042L13.671,3.309z"/><path d="M15.635,7.477V6.296h-0.016c-0.012,0.052-0.026,0.104-0.057,0.149c-0.08,0.115-0.211,0.183-0.351,0.183h-1.71v0.65h1.792   C15.437,7.278,15.556,7.361,15.635,7.477z"/><path d="M3.235,21.693c0.294-0.059,0.548-0.194,0.771-0.312c0.226-0.119,0.422-0.222,0.616-0.241   c0.026,0.001,0.099,0.032,0.164,0.058c1.137,0.471,2.378,0.603,3.496,0.366c0.23-0.048,0.435-0.137,0.632-0.222   c0.205-0.089,0.399-0.173,0.574-0.187c0.155,0.005,0.298,0.061,0.517,0.181c0.121,0.067,0.243,0.132,0.373,0.184   c0.453,0.183,0.96,0.276,1.492,0.276c0.249,0,0.504-0.02,0.761-0.061c0.336-0.053,0.63-0.172,0.915-0.287   c0.247-0.099,0.48-0.193,0.709-0.228c0.191-0.034,0.364,0.038,0.629,0.153c0.116,0.05,0.233,0.1,0.357,0.142   c0.905,0.303,1.924,0.33,2.868,0.077c0.212-0.057,0.401-0.16,0.567-0.252c0.188-0.103,0.375-0.195,0.507-0.194   c0.203,0.009,0.405,0.101,0.64,0.208c0.18,0.083,0.362,0.165,0.55,0.218c0.491,0.14,0.991,0.151,1.475,0.163l0.276,0.007   c0.213,0.053,0.432-0.177,0.441-0.412c0.008-0.236-0.177-0.434-0.412-0.441l-0.286-0.008c-0.43-0.01-0.875-0.021-1.261-0.13   c-0.075-0.021-0.147-0.057-0.219-0.088c0.29-1.631,1.196-3.487,1.717-4.448h-2.801c-0.005,0-0.01,0.003-0.015,0.003   c-0.005,0-0.01-0.003-0.015-0.003h-1.74c-0.005,0-0.01,0.003-0.015,0.003c-0.005,0-0.01-0.003-0.015-0.003h-2.137   c-0.005,0-0.01,0.003-0.015,0.003c-0.005,0-0.01-0.003-0.015-0.003h-2.137c-0.005,0-0.01,0.003-0.015,0.003   c-0.005,0-0.01-0.003-0.015-0.003h-2.137c-0.005,0-0.01,0.003-0.015,0.003s-0.01-0.003-0.015-0.003H8.864   c-0.005,0-0.01,0.003-0.015,0.003s-0.01-0.003-0.015-0.003H6.696c-0.005,0-0.01,0.003-0.015,0.003s-0.01-0.003-0.015-0.003H4.879   c-0.005,0-0.01,0.003-0.015,0.003c-0.005,0-0.01-0.003-0.015-0.003H1.9c0.225,0.838,0.824,2.59,2.089,4.227   c-0.134,0.057-0.263,0.121-0.381,0.184c-0.19,0.1-0.369,0.194-0.543,0.23c-0.499,0.1-1.045,0.091-1.623-0.029   c-0.23-0.049-0.457,0.1-0.505,0.33c-0.048,0.231,0.1,0.457,0.33,0.505C1.96,21.809,2.622,21.819,3.235,21.693z"/></g><text x="0" y="39" fill="#000000" font-size="5px" font-weight="bold" font-family="'Helvetica Neue', Helvetica, Arial-Unicode, Arial, Sans-serif">Created by Atif Arshad</text><text x="0" y="44" fill="#000000" font-size="5px" font-weight="bold" font-family="'Helvetica Neue', Helvetica, Arial-Unicode, Arial, Sans-serif">from the Noun Project</text></svg>