<svg xmlns="http://www.w3.org/2000/svg" version="1.1" viewBox="-5.0 -10.0 110.0 135.0">
 <path d="m80.797 56.891v-15.273h-3v15.273h-8.8398c-0.59375-4.2695-5.6719-5.6953-8.5078-5.8438h-3.0742l-4.7109-13.852h-13.996v-16.125h-3v16.125h-3.125v-16.125h-3v16.125h-16.871v13.852h-5.3203v5.8438h-5.2344v22.035h80.324c7.793-0.21094 15.438-22.035 15.438-22.035zm-59.75-10.656h-3v-3.8672h3zm6.2188 0h-3v-3.8672h3zm6.3594 0h-3v-3.8672h3zm6.2227 0h-3v-3.8672h3z"/>
<text x="0.0" y="117.5" font-size="5.0" font-weight="bold" font-family="Arbeit Regular, Helvetica, Arial-Unicode, Arial, Sans-serif" fill="#000000">by bellvania naomi argi pramana</text><text x="0.0" y="122.5" font-size="5.0" font-weight="bold" font-family="Arbeit Regular, Helvetica, Arial-Unicode, Arial, Sans-serif" fill="#000000">from Noun Project</text></svg>