<svg preserveAspectRatio="none" xmlns="http://www.w3.org/2000/svg" version="1.1" viewBox="-5.0 -10.0 110.0 135.0">
 <path d="m47.344 56.934c-9.6172-1.4141-15.281-2.2578-22.312-3.1641-0.03125 0-0.058594-0.03125-0.058594-0.058593l-0.61719-2.8984c-0.007813-0.039062 0.007812-0.046875 0.039062-0.046875l4.6094 0.53906c0.039063 0 0.046875-0.007813 0.046875-0.046876v-8.3672c0-0.10938 0.046875-0.15625 0.15625-0.15625h0.625c0.097657 0 0.15625 0.046875 0.15625 0.14844l0.03125 0.52734c0 0.007813 0.007813 0.019532 0.007813 0.019532l3.8672 1.5547c0.21484 0.085937 0.20312 0.125-0.019531 0.13672l-3.8359 0.039062c-0.03125 0-0.046874 0.019532-0.046874 0.046875l0.007812 6.1797c0 0.019531 0.019531 0.039062 0.039062 0.039062 6.7891 0.78906 13.562 1.582 20.352 2.3633 1.5234 0.17578 3.0469 0.35938 4.5625 0.55469 0.35938 0.046875 0.83984 0.14844 1.2578 0.1875 0 0 0.007812 0 0.007812-0.007812 0-0.007813 0-0.007813-0.007812-0.007813l-13.516-2.9219c-0.085937-0.019531-0.14844-0.070312-0.17578-0.15625l-2.3516-6.6094c-0.007813-0.039063 0-0.058594 0.039062-0.058594h9.8125c0.039063 0 0.070313-0.019531 0.070313-0.058593l2-13.664c0.007812-0.046875-0.007813-0.078125-0.070313-0.078125l-4.3164 0.007812c-0.13672 0-0.14844-0.039062-0.03125-0.10937 1.1328-0.72266 2.2578-1.4375 3.3984-2.1562 0.078126-0.046876 0.22266-0.078126 0.4375-0.078126 1.7773 0.019532 3.5352 0.03125 5.2734 0.007813 0.058594 0 0.070312 0.019531 0.03125 0.058594l-2.168 2.1016c-0.03125 0.03125-0.039062 0.070313-0.039062 0.10938l2.168 13.758c0.007812 0.03125 0.03125 0.046875 0.058593 0.046875l6.0078-0.007813c0.039062 0 0.058594 0.019531 0.058594 0.046875l1.4844 8.9766c0.007813 0.039062 0.03125 0.058593 0.070313 0.070312l3.9922 0.32031c0.039063 0 0.070313-0.019532 0.078126-0.058594l0.26562-2.2188c0.007813-0.085938-0.007812-0.17578-0.058593-0.25391l-1.3203-1.875c-0.03125-0.046875-0.019531-0.070313 0.039063-0.070313l2.9219 0.078125c0.039062 0 0.078125-0.019531 0.10938-0.058594l1.6484-2.8438c0.019532-0.03125 0.070313-0.03125 0.085938 0l1.582 2.8594c0.03125 0.046874 0.070313 0.078124 0.125 0.070312l3.0664-0.097656c0.019531 0 0.03125 0.019531 0.019531 0.03125l-1.4453 2.0391c-0.019531 0.03125-0.03125 0.058594-0.019531 0.085938l0.39062 3.0547c0 0.039063 0.019531 0.058594 0.058594 0.058594 1.0742 0.085937 2.1562 0.17578 3.2344 0.27344 1.4531 0.125 2.7148 0.17578 4.082 0.16406 0.03125 0 0.046875 0.03125 0.03125 0.058594l-10.441 12.57c-0.046876 0.070313-0.13672 0.097657-0.21484 0.097657h-44.969c-0.058594 0-0.11719-0.03125-0.15625-0.078126l-10.801-12.547c-0.085937-0.097657-0.070312-0.14844 0.070313-0.14844l2.1797 0.007812c0.019532 0 0.03125-0.007812 0.019532-0.03125l-0.61719-3.1641c-0.007812-0.039062 0.007813-0.058594 0.039063-0.058594l5.5781-1.2891c0.019531 0 0.039062 0.007812 0.039062 0.03125l0.33203 2.9102c0 0.039062-0.007813 0.058594-0.039063 0.078125l-1.6797 0.83984c-0.007813 0.007812-0.019532 0.007812-0.019532 0.019531 0.007813 0.007812 0.007813 0.019531 0.019532 0.007812 0.46875-0.14844 1.0547-0.42187 1.543-0.37109 6.9062 0.76172 13.801 1.543 20.695 2.3516 0.46875 0.058594 1.1016 0.16406 1.6602 0.21484 0.19531 0.019531 0.50781 0.097656 0.76172 0.085937 0.0625 0.007813 0.0625 0 0.003906-0.011718z"/>
<text x="0.0" y="117.5" font-size="5.0" font-weight="bold" font-family="Arbeit Regular, Helvetica, Arial-Unicode, Arial, Sans-serif" fill="#000000">Created by Phill</text><text x="0.0" y="122.5" font-size="5.0" font-weight="bold" font-family="Arbeit Regular, Helvetica, Arial-Unicode, Arial, Sans-serif" fill="#000000">from Noun Project</text></svg>