<svg preserveAspectRatio="none"
    xmlns="http://www.w3.org/2000/svg" version="1.1" viewBox="3 30.0 95.0 45.0">
    <g>
        <path d="m9.9141 58.922v5.3125h2.4883l0.5625-2.9648-2.7266-2.3477z"/>
        <path d="m11.43 56.855c3.7266-0.69922-1.3203-1.1641-5.9766-0.46484 0-0.003906 2.2539 1.1641 5.9766 0.46484z"/>
        <path d="m7.5273 55.652c0.14453-0.011719 0.29297-0.023438 0.4375-0.03125-0.17578-0.39062-0.27734-0.83984-0.27734-1.3242 0-0.65234 0.18359-1.25 0.48828-1.7109-0.73438 0.21875-1.2734 0.90234-1.2734 1.7109 0 0.54297 0.24219 1.0273 0.625 1.3555z"/>
        <path d="m9.0977 57.578c-0.14844 0-0.29688 0-0.4375-0.007813 0.003906 0.046876 0.003906 0.09375 0.003906 0.14453 0 0.65234-0.18359 1.25-0.48828 1.7109 0.73438-0.22266 1.2734-0.90234 1.2734-1.7109 0-0.050782-0.003907-0.097656-0.007813-0.14453-0.11328 0.003907-0.23047 0.007813-0.34375 0.007813z"/>
        <path d="m12.336 52.293-0.61328-4.582h-1.8047v5.4023c0.34375 0.007813 0.68359 0.10938 0.97266 0.30859z"/>
        <path d="m8.4023 55.391c0.23047-0.35156 0.54297-0.67188 0.9375-0.92969 0.1875-0.12109 0.37891-0.22266 0.57422-0.30078 0.26953-0.10938 0.53906-0.17578 0.80469-0.20703 0.09375-0.011719 0.19141-0.019531 0.28125-0.019531l0.019531-0.015625c-0.042969-0.035157-0.085937-0.066407-0.13281-0.097657-0.28906-0.19531-0.62891-0.30078-0.97266-0.30859-0.34375-0.007813-0.69531 0.085937-1.0039 0.28906-0.55469 0.36328-0.83984 0.98438-0.80469 1.6055 0.097656-0.003906 0.19922-0.007812 0.29688-0.015625z"/>
        <path d="m5.3125 57.879c0.58594 0.49609 1.4531 0.57031 2.1289 0.12891 0.20312-0.13281 0.36719-0.30078 0.49609-0.48828-0.35547-0.035156-0.67969-0.085937-0.96875-0.14453-0.53516 0.34375-1.1172 0.50781-1.6562 0.50391z"/>
        <path d="m6.7422 55.723c-0.097657-0.042968-0.19531-0.09375-0.29297-0.14844-0.56641-0.32422-0.99219-0.78125-1.2383-1.2773-0.12891 0.55078 0.011718 1.1367 0.37891 1.5664 0.37891-0.050781 0.76172-0.097656 1.1523-0.14062z"/>
        <path d="m84.703 49.914c-0.37109 0-0.74219 0.011719-1.1016 0.039063v-0.035156h-21.789c-0.56641-0.43359-0.87109-1.293-1.2695-3.6133-0.66797-3.8789-3.0117-3.2773-3.0117-3.2773h-1.8164v-6.625h-0.87109v6.625h-0.44531v-6.625h-0.86719v6.625h-0.33203v-5.5547h-1.0898v5.5547h-0.33203v-7.0273h-0.87109v7.0273h-1.4961v-5.5547h-1.0859v5.5547h-2.0312l-1.4258 6.8906h-28.461l-4.0703 3.1758-1.3125 1.0234c0.003906 0.003906 0.011718 0.007812 0.015624 0.015624h-0.035156l-1.0898 0.85156-0.69922 0.54688c0.16797-0.015625 0.33594-0.011719 0.50391 0.019531 0.12109 0 0.24219-0.007812 0.35938-0.007812 2.8398 0 3.1055 0.36328 3.1445 0.80469 0.058594 0.62109-0.70312 0.8125-1.6992 1-0.11328 0.023438-0.22656 0.039063-0.33984 0.058594-0.003906 0.10156-0.019532 0.20703-0.042969 0.30859-0.046875-0.09375-0.10156-0.1875-0.16406-0.27734-0.46484 0.066406-0.92578 0.10938-1.3789 0.12891l0.63672 0.55078 2.7266 2.3477 3.4414 2.9648h67.195v-0.039063c0.36328 0.027344 0.73047 0.039063 1.1016 0.039063 5.6367 0 10.203-3.0273 10.203-6.7578 0.003906-3.7305-4.5664-6.7578-10.199-6.7578zm-28.242-3.5078v-1.6445c1.8047 0.46875 3.0781 0.40234 3.0781 0.40234v1.0039c-2.6641-0.003907-3.0391 0.16797-3.0781 0.23828v0.027344s-0.015626-0.011719 0-0.027344zm-7.1602 5.5195h2.6758l0.60156 2.0742h-3.8828zm-22.457 2.0742 0.60156-2.0742h2.6758l0.60156 2.0742zm49.195 7.4922h-34.77v-1.0586h34.77zm-3.2812-7.4922 0.60156-2.0742h2.6758l0.60156 2.0742z"/>
    </g>
</svg>